<svg viewBox="0 0 768 768" xmlns="http://www.w3.org/2000/svg">
  <defs>
    <filter id="innerGlow" x="-50%" y="-50%" width="200%" height="200%">
      <feGaussianBlur in="SourceGraphic" stdDeviation="4" result="blur" />
      <feColorMatrix
        in="blur"
        type="matrix"
        values="1 0 0 0 0
                0 1 0 0 0.86
                0 0 1 0 0.78
                0 0 0 1 0"
        result="glow"
      />
      <feMerge>
        <feMergeNode in="glow" />
        <feMergeNode in="SourceGraphic" />
      </feMerge>
    </filter>
    <radialGradient id="halo" cx="50%" cy="45%" r="60%">
      <stop offset="0%" stop-color="#14b8a6" stop-opacity="0.22" />
      <stop offset="55%" stop-color="#14b8a6" stop-opacity="0.08" />
      <stop offset="100%" stop-color="#14b8a6" stop-opacity="0" />
    </radialGradient>
  </defs>

  <circle cx="384" cy="200" r="220" fill="url(#halo)"/>
  <circle cx="384" cy="200" r="220" fill="none" stroke="#14b8a6" stroke-width="6" filter="url(#innerGlow)"/>
  
  <!-- Triangle tree structure -->
  <!-- Top point -->
  <circle cx="384" cy="90" r="8" fill="#14b8a6" filter="url(#innerGlow)"/>
  <line x1="384" y1="100" x2="384" y2="130" stroke="#14b8a6" stroke-width="3" filter="url(#innerGlow)"/>
  
  <!-- Level 1 - 2 points -->
  <circle cx="340" cy="140" r="8" fill="#14b8a6" filter="url(#innerGlow)"/>
  <circle cx="428" cy="140" r="8" fill="#14b8a6" filter="url(#innerGlow)"/>
  <line x1="384" y1="130" x2="340" y2="140" stroke="#14b8a6" stroke-width="3" filter="url(#innerGlow)"/>
  <line x1="384" y1="130" x2="428" y2="140" stroke="#14b8a6" stroke-width="3" filter="url(#innerGlow)"/>
  
  <!-- Horizontal line at level 1 -->
  <line x1="340" y1="140" x2="428" y2="140" stroke="#14b8a6" stroke-width="3" filter="url(#innerGlow)"/>
  
  <!-- Level 2 - 4 points -->
  <circle cx="296" cy="190" r="8" fill="#14b8a6" filter="url(#innerGlow)"/>
  <circle cx="372" cy="190" r="8" fill="#14b8a6" filter="url(#innerGlow)"/>
  <circle cx="396" cy="190" r="8" fill="#14b8a6" filter="url(#innerGlow)"/>
  <circle cx="472" cy="190" r="8" fill="#14b8a6" filter="url(#innerGlow)"/>
  
  <!-- Connections to level 2 -->
  <line x1="340" y1="140" x2="296" y2="190" stroke="#14b8a6" stroke-width="3" filter="url(#innerGlow)"/>
  <line x1="340" y1="140" x2="372" y2="190" stroke="#14b8a6" stroke-width="3" filter="url(#innerGlow)"/>
  <line x1="428" y1="140" x2="396" y2="190" stroke="#14b8a6" stroke-width="3" filter="url(#innerGlow)"/>
  <line x1="428" y1="140" x2="472" y2="190" stroke="#14b8a6" stroke-width="3" filter="url(#innerGlow)"/>
  
  <!-- Horizontal lines at level 2 -->
  <line x1="296" y1="190" x2="372" y2="190" stroke="#14b8a6" stroke-width="3" filter="url(#innerGlow)"/>
  <line x1="372" y1="190" x2="472" y2="190" stroke="#14b8a6" stroke-width="3" filter="url(#innerGlow)"/>
  
  <!-- Level 3 - 8 points -->
  <circle cx="252" cy="240" r="8" fill="#14b8a6" filter="url(#innerGlow)"/>
  <circle cx="334" cy="240" r="8" fill="#14b8a6" filter="url(#innerGlow)"/>
  <circle cx="408" cy="240" r="8" fill="#14b8a6" filter="url(#innerGlow)"/>
  <circle cx="434" cy="240" r="8" fill="#14b8a6" filter="url(#innerGlow)"/>
  <circle cx="516" cy="240" r="8" fill="#14b8a6" filter="url(#innerGlow)"/>
  
  <!-- Connections to level 3 -->
  <line x1="296" y1="190" x2="252" y2="240" stroke="#14b8a6" stroke-width="3" filter="url(#innerGlow)"/>
  <line x1="296" y1="190" x2="334" y2="240" stroke="#14b8a6" stroke-width="3" filter="url(#innerGlow)"/>
  <line x1="372" y1="190" x2="334" y2="240" stroke="#14b8a6" stroke-width="3" filter="url(#innerGlow)"/>
  <line x1="372" y1="190" x2="408" y2="240" stroke="#14b8a6" stroke-width="3" filter="url(#innerGlow)"/>
  <line x1="396" y1="190" x2="408" y2="240" stroke="#14b8a6" stroke-width="3" filter="url(#innerGlow)"/>
  <line x1="396" y1="190" x2="434" y2="240" stroke="#14b8a6" stroke-width="3" filter="url(#innerGlow)"/>
  <line x1="472" y1="190" x2="434" y2="240" stroke="#14b8a6" stroke-width="3" filter="url(#innerGlow)"/>
  <line x1="472" y1="190" x2="516" y2="240" stroke="#14b8a6" stroke-width="3" filter="url(#innerGlow)"/>
  
  <!-- Bottom base points -->
  <circle cx="228" cy="290" r="8" fill="#14b8a6" filter="url(#innerGlow)"/>
  <circle cx="306" cy="290" r="8" fill="#14b8a6" filter="url(#innerGlow)"/>
  <circle cx="384" cy="290" r="8" fill="#14b8a6" filter="url(#innerGlow)"/>
  <circle cx="462" cy="290" r="8" fill="#14b8a6" filter="url(#innerGlow)"/>
  <circle cx="540" cy="290" r="8" fill="#14b8a6" filter="url(#innerGlow)"/>
  
  <!-- Connections to base -->
  <line x1="252" y1="240" x2="228" y2="290" stroke="#14b8a6" stroke-width="3" filter="url(#innerGlow)"/>
  <line x1="252" y1="240" x2="306" y2="290" stroke="#14b8a6" stroke-width="3" filter="url(#innerGlow)"/>
  <line x1="334" y1="240" x2="306" y2="290" stroke="#14b8a6" stroke-width="3" filter="url(#innerGlow)"/>
  <line x1="334" y1="240" x2="384" y2="290" stroke="#14b8a6" stroke-width="3" filter="url(#innerGlow)"/>
  <line x1="408" y1="240" x2="384" y2="290" stroke="#14b8a6" stroke-width="3" filter="url(#innerGlow)"/>
  <line x1="408" y1="240" x2="462" y2="290" stroke="#14b8a6" stroke-width="3" filter="url(#innerGlow)"/>
  <line x1="434" y1="240" x2="462" y2="290" stroke="#14b8a6" stroke-width="3" filter="url(#innerGlow)"/>
  <line x1="434" y1="240" x2="540" y2="290" stroke="#14b8a6" stroke-width="3" filter="url(#innerGlow)"/>
  <line x1="516" y1="240" x2="540" y2="290" stroke="#14b8a6" stroke-width="3" filter="url(#innerGlow)"/>
  
  <!-- Base horizontal lines -->
  <line x1="228" y1="290" x2="540" y2="290" stroke="#14b8a6" stroke-width="3" filter="url(#innerGlow)"/>
  
  <!-- Tree trunk -->
  <line x1="360" y1="290" x2="360" y2="370" stroke="#14b8a6" stroke-width="4" filter="url(#innerGlow)"/>
  <line x1="408" y1="290" x2="408" y2="370" stroke="#14b8a6" stroke-width="4" filter="url(#innerGlow)"/>
  <line x1="384" y1="290" x2="384" y2="370" stroke="#14b8a6" stroke-width="4" filter="url(#innerGlow)"/>
  
  <!-- Root base -->
  <circle cx="360" cy="380" r="8" fill="#14b8a6" filter="url(#innerGlow)"/>
  <circle cx="384" cy="380" r="8" fill="#14b8a6" filter="url(#innerGlow)"/>
  <circle cx="408" cy="380" r="8" fill="#14b8a6" filter="url(#innerGlow)"/>
  
  <!-- Root lines -->
  <line x1="360" y1="370" x2="360" y2="380" stroke="#14b8a6" stroke-width="3" filter="url(#innerGlow)"/>
  <line x1="384" y1="370" x2="384" y2="380" stroke="#14b8a6" stroke-width="3" filter="url(#innerGlow)"/>
  <line x1="408" y1="370" x2="408" y2="380" stroke="#14b8a6" stroke-width="3" filter="url(#innerGlow)"/>
  
  <!-- Side crosshairs -->
  <circle cx="160" cy="200" r="6" fill="none" stroke="#14b8a6" stroke-width="2" filter="url(#innerGlow)"/>
  <line x1="145" y1="200" x2="175" y2="200" stroke="#14b8a6" stroke-width="2" filter="url(#innerGlow)"/>
  <line x1="160" y1="185" x2="160" y2="215" stroke="#14b8a6" stroke-width="2" filter="url(#innerGlow)"/>
  
  <circle cx="608" cy="200" r="6" fill="none" stroke="#14b8a6" stroke-width="2" filter="url(#innerGlow)"/>
  <line x1="593" y1="200" x2="623" y2="200" stroke="#14b8a6" stroke-width="2" filter="url(#innerGlow)"/>
  <line x1="608" y1="185" x2="608" y2="215" stroke="#14b8a6" stroke-width="2" filter="url(#innerGlow)"/>
  
  <!-- Top crosshair -->
  <circle cx="384" cy="30" r="6" fill="none" stroke="#14b8a6" stroke-width="2" filter="url(#innerGlow)"/>
  <line x1="369" y1="30" x2="399" y2="30" stroke="#14b8a6" stroke-width="2" filter="url(#innerGlow)"/>
  <line x1="384" y1="15" x2="384" y2="45" stroke="#14b8a6" stroke-width="2" filter="url(#innerGlow)"/>
</svg>